<svg id="visual" viewBox="0 0 1440 650" width="1440" height="650" xmlns="http://www.w3.org/2000/svg" xmlns:xlink="http://www.w3.org/1999/xlink" version="1.1"><rect x="0" y="0" width="1440" height="650" fill="#1A191D"></rect><defs><linearGradient id="grad1_0" x1="54.9%" y1="100%" x2="100%" y2="0%"><stop offset="5.69230769230769%" stop-color="#1a191d" stop-opacity="1"></stop><stop offset="94.30769230769232%" stop-color="#1a191d" stop-opacity="1"></stop></linearGradient></defs><defs><linearGradient id="grad2_0" x1="0%" y1="100%" x2="45.1%" y2="0%"><stop offset="5.69230769230769%" stop-color="#1a191d" stop-opacity="1"></stop><stop offset="94.30769230769232%" stop-color="#1a191d" stop-opacity="1"></stop></linearGradient></defs><g transform="translate(1440, 650)"><path d="M-227.5 0C-226.6 -24.1 -225.8 -48.3 -216.4 -70.3C-206.9 -92.3 -188.9 -112.2 -165.8 -120.5C-142.8 -128.8 -114.6 -125.6 -97 -133.5C-79.3 -141.4 -72.2 -160.3 -57.8 -177.8C-43.4 -195.4 -21.7 -211.4 0 -227.5L0 0Z" fill="#1C8351"></path></g><g transform="translate(0, 0)"><path d="M227.5 0C232.8 29.5 238 58.9 216.4 70.3C194.7 81.7 146.1 75 132.7 96.4C119.3 117.8 141.1 167.3 132.8 182.8C124.6 198.4 86.2 179.9 59 181.7C31.9 183.4 15.9 205.5 0 227.5L0 0Z" fill="#1C8351"></path></g></svg>