<svg id="visual" viewBox="0 0 1440 650" width="1440" height="650" xmlns="http://www.w3.org/2000/svg" xmlns:xlink="http://www.w3.org/1999/xlink" version="1.1"><rect x="0" y="0" width="1440" height="650" fill="#1A191D"></rect><defs><linearGradient id="grad1_0" x1="54.9%" y1="100%" x2="100%" y2="0%"><stop offset="5.69230769230769%" stop-color="#1a191d" stop-opacity="1"></stop><stop offset="94.30769230769232%" stop-color="#1a191d" stop-opacity="1"></stop></linearGradient></defs><defs><linearGradient id="grad2_0" x1="0%" y1="100%" x2="45.1%" y2="0%"><stop offset="5.69230769230769%" stop-color="#1a191d" stop-opacity="1"></stop><stop offset="94.30769230769232%" stop-color="#1a191d" stop-opacity="1"></stop></linearGradient></defs><g transform="translate(1440, 650)"><path d="M-227.5 0C-204.7 -17.2 -181.9 -34.5 -177.8 -57.8C-173.8 -81.1 -188.6 -110.4 -184.1 -133.7C-179.5 -157 -155.5 -174.2 -131.7 -181.2C-107.8 -188.3 -84 -185.1 -62.1 -191.2C-40.2 -197.2 -20.1 -212.3 0 -227.5L0 0Z" fill="#1C8351"></path></g><g transform="translate(0, 0)"><path d="M227.5 0C224 23.6 220.5 47.1 211.1 68.6C201.8 90.1 186.5 109.5 169.1 122.8C151.7 136.2 132 143.3 116.4 160.2C100.7 177 89 203.5 70.3 216.4C51.6 229.2 25.8 228.3 0 227.5L0 0Z" fill="#1C8351"></path></g></svg>