<svg id="visual" viewBox="0 0 1440 650" width="1440" height="650" xmlns="http://www.w3.org/2000/svg" xmlns:xlink="http://www.w3.org/1999/xlink" version="1.1"><rect x="0" y="0" width="1440" height="650" fill="#1A191D"></rect><defs><linearGradient id="grad1_0" x1="54.9%" y1="0%" x2="100%" y2="100%"><stop offset="5.69230769230769%" stop-color="#1a191d" stop-opacity="1"></stop><stop offset="94.30769230769232%" stop-color="#1a191d" stop-opacity="1"></stop></linearGradient></defs><defs><linearGradient id="grad2_0" x1="0%" y1="0%" x2="45.1%" y2="100%"><stop offset="5.69230769230769%" stop-color="#1a191d" stop-opacity="1"></stop><stop offset="94.30769230769232%" stop-color="#1a191d" stop-opacity="1"></stop></linearGradient></defs><g transform="translate(1440, 0)"><path d="M0 227.5C-20.4 213.1 -40.7 198.7 -61.2 188.3C-81.7 177.9 -102.2 171.5 -114.6 157.8C-127 144 -131.2 122.9 -149.7 108.7C-168.2 94.6 -201 87.3 -216.4 70.3C-231.7 53.3 -229.6 26.7 -227.5 0L0 0Z" fill="#1C8351"></path></g><g transform="translate(0, 650)"><path d="M0 -227.5C27.1 -231.3 54.2 -235 70.3 -216.4C86.4 -197.7 91.6 -156.6 95.2 -131.1C98.8 -105.5 100.9 -95.6 123.8 -89.9C146.7 -84.3 190.4 -82.9 211.1 -68.6C231.9 -54.3 229.7 -27.2 227.5 0L0 0Z" fill="#1C8351"></path></g></svg>