<svg id="visual" viewBox="0 0 1440 600" width="1440" height="600" xmlns="http://www.w3.org/2000/svg" xmlns:xlink="http://www.w3.org/1999/xlink" version="1.1"><rect x="0" y="0" width="1440" height="600" fill="#1A191D"></rect><path d="M0 325L48 340C96 355 192 385 288 402C384 419 480 423 576 413.7C672 404.3 768 381.7 864 384.8C960 388 1056 417 1152 430.3C1248 443.7 1344 441.3 1392 440.2L1440 439L1440 0L1392 0C1344 0 1248 0 1152 0C1056 0 960 0 864 0C768 0 672 0 576 0C480 0 384 0 288 0C192 0 96 0 48 0L0 0Z" fill="#193025"></path><path d="M0 392L48 389.3C96 386.7 192 381.3 288 376.8C384 372.3 480 368.7 576 359.7C672 350.7 768 336.3 864 317C960 297.7 1056 273.3 1152 266.7C1248 260 1344 271 1392 276.5L1440 282L1440 0L1392 0C1344 0 1248 0 1152 0C1056 0 960 0 864 0C768 0 672 0 576 0C480 0 384 0 288 0C192 0 96 0 48 0L0 0Z" fill="#1b4431"></path><path d="M0 241L48 236C96 231 192 221 288 229.2C384 237.3 480 263.7 576 262.5C672 261.3 768 232.7 864 218.8C960 205 1056 206 1152 213.2C1248 220.3 1344 233.7 1392 240.3L1440 247L1440 0L1392 0C1344 0 1248 0 1152 0C1056 0 960 0 864 0C768 0 672 0 576 0C480 0 384 0 288 0C192 0 96 0 48 0L0 0Z" fill="#1c583c"></path><path d="M0 166L48 163C96 160 192 154 288 153.3C384 152.7 480 157.3 576 159.2C672 161 768 160 864 164.2C960 168.3 1056 177.7 1152 182.8C1248 188 1344 189 1392 189.5L1440 190L1440 0L1392 0C1344 0 1248 0 1152 0C1056 0 960 0 864 0C768 0 672 0 576 0C480 0 384 0 288 0C192 0 96 0 48 0L0 0Z" fill="#1c6d47"></path><path d="M0 56L48 60C96 64 192 72 288 73.8C384 75.7 480 71.3 576 81.5C672 91.7 768 116.3 864 118.2C960 120 1056 99 1152 85.7C1248 72.3 1344 66.7 1392 63.8L1440 61L1440 0L1392 0C1344 0 1248 0 1152 0C1056 0 960 0 864 0C768 0 672 0 576 0C480 0 384 0 288 0C192 0 96 0 48 0L0 0Z" fill="#1c8351"></path></svg>