<svg id="visual" viewBox="0 0 1440 900" width="1440" height="900" xmlns="http://www.w3.org/2000/svg" xmlns:xlink="http://www.w3.org/1999/xlink" version="1.1"><rect x="0" y="0" width="1440" height="900" fill="#1A191D"></rect><path d="M0 387L34.3 382C68.7 377 137.3 367 205.8 371.8C274.3 376.7 342.7 396.3 411.2 392.8C479.7 389.3 548.3 362.7 617 357.2C685.7 351.7 754.3 367.3 823 383.5C891.7 399.7 960.3 416.3 1028.8 407.5C1097.3 398.7 1165.7 364.3 1234.2 343.7C1302.7 323 1371.3 316 1405.7 312.5L1440 309L1440 0L1405.7 0C1371.3 0 1302.7 0 1234.2 0C1165.7 0 1097.3 0 1028.8 0C960.3 0 891.7 0 823 0C754.3 0 685.7 0 617 0C548.3 0 479.7 0 411.2 0C342.7 0 274.3 0 205.8 0C137.3 0 68.7 0 34.3 0L0 0Z" fill="#17251e"></path><path d="M0 297L34.3 307.3C68.7 317.7 137.3 338.3 205.8 332.3C274.3 326.3 342.7 293.7 411.2 293.5C479.7 293.3 548.3 325.7 617 322.2C685.7 318.7 754.3 279.3 823 282.3C891.7 285.3 960.3 330.7 1028.8 336.5C1097.3 342.3 1165.7 308.7 1234.2 302.3C1302.7 296 1371.3 317 1405.7 327.5L1440 338L1440 0L1405.7 0C1371.3 0 1302.7 0 1234.2 0C1165.7 0 1097.3 0 1028.8 0C960.3 0 891.7 0 823 0C754.3 0 685.7 0 617 0C548.3 0 479.7 0 411.2 0C342.7 0 274.3 0 205.8 0C137.3 0 68.7 0 34.3 0L0 0Z" fill="#1a3b2b"></path><path d="M0 292L34.3 273.3C68.7 254.7 137.3 217.3 205.8 205.5C274.3 193.7 342.7 207.3 411.2 222C479.7 236.7 548.3 252.3 617 246.3C685.7 240.3 754.3 212.7 823 203.8C891.7 195 960.3 205 1028.8 209C1097.3 213 1165.7 211 1234.2 204.2C1302.7 197.3 1371.3 185.7 1405.7 179.8L1440 174L1440 0L1405.7 0C1371.3 0 1302.7 0 1234.2 0C1165.7 0 1097.3 0 1028.8 0C960.3 0 891.7 0 823 0C754.3 0 685.7 0 617 0C548.3 0 479.7 0 411.2 0C342.7 0 274.3 0 205.8 0C137.3 0 68.7 0 34.3 0L0 0Z" fill="#1c5238"></path><path d="M0 117L34.3 122.7C68.7 128.3 137.3 139.7 205.8 153.2C274.3 166.7 342.7 182.3 411.2 188.5C479.7 194.7 548.3 191.3 617 185.3C685.7 179.3 754.3 170.7 823 165.8C891.7 161 960.3 160 1028.8 164.8C1097.3 169.7 1165.7 180.3 1234.2 186.3C1302.7 192.3 1371.3 193.7 1405.7 194.3L1440 195L1440 0L1405.7 0C1371.3 0 1302.7 0 1234.2 0C1165.7 0 1097.3 0 1028.8 0C960.3 0 891.7 0 823 0C754.3 0 685.7 0 617 0C548.3 0 479.7 0 411.2 0C342.7 0 274.3 0 205.8 0C137.3 0 68.7 0 34.3 0L0 0Z" fill="#1c6a45"></path><path d="M0 110L34.3 112.2C68.7 114.3 137.3 118.7 205.8 112.5C274.3 106.3 342.7 89.7 411.2 87C479.7 84.3 548.3 95.7 617 100.8C685.7 106 754.3 105 823 99.7C891.7 94.3 960.3 84.7 1028.8 78.2C1097.3 71.7 1165.7 68.3 1234.2 72C1302.7 75.7 1371.3 86.3 1405.7 91.7L1440 97L1440 0L1405.7 0C1371.3 0 1302.7 0 1234.2 0C1165.7 0 1097.3 0 1028.8 0C960.3 0 891.7 0 823 0C754.3 0 685.7 0 617 0C548.3 0 479.7 0 411.2 0C342.7 0 274.3 0 205.8 0C137.3 0 68.7 0 34.3 0L0 0Z" fill="#1c8351"></path></svg>