<svg id="visual" viewBox="0 0 1440 900" width="1440" height="900" xmlns="http://www.w3.org/2000/svg" xmlns:xlink="http://www.w3.org/1999/xlink" version="1.1"><path d="M0 759L34.3 742C68.7 725 137.3 691 205.8 671.5C274.3 652 342.7 647 411.2 648.3C479.7 649.7 548.3 657.3 617 677.5C685.7 697.7 754.3 730.3 823 744C891.7 757.7 960.3 752.3 1028.8 737C1097.3 721.7 1165.7 696.3 1234.2 694.8C1302.7 693.3 1371.3 715.7 1405.7 726.8L1440 738L1440 901L1405.7 901C1371.3 901 1302.7 901 1234.2 901C1165.7 901 1097.3 901 1028.8 901C960.3 901 891.7 901 823 901C754.3 901 685.7 901 617 901C548.3 901 479.7 901 411.2 901C342.7 901 274.3 901 205.8 901C137.3 901 68.7 901 34.3 901L0 901Z" fill="#1C8351" stroke-linecap="round" stroke-linejoin="miter"></path></svg>