<svg id="visual" viewBox="0 0 1440 600" width="1440" height="600" xmlns="http://www.w3.org/2000/svg" xmlns:xlink="http://www.w3.org/1999/xlink" version="1.1"><rect x="0" y="0" width="1440" height="600" fill="#1A191D"></rect><path d="M0 404L40 378.3C80 352.7 160 301.3 240 287.3C320 273.3 400 296.7 480 320.2C560 343.7 640 367.3 720 381.2C800 395 880 399 960 379.8C1040 360.7 1120 318.3 1200 317.8C1280 317.3 1360 358.7 1400 379.3L1440 400L1440 601L1400 601C1360 601 1280 601 1200 601C1120 601 1040 601 960 601C880 601 800 601 720 601C640 601 560 601 480 601C400 601 320 601 240 601C160 601 80 601 40 601L0 601Z" fill="#1C8351" stroke-linecap="round" stroke-linejoin="miter"></path></svg>