<svg id="visual" viewBox="0 0 1440 900" width="1440" height="900" xmlns="http://www.w3.org/2000/svg" xmlns:xlink="http://www.w3.org/1999/xlink" version="1.1"><path d="M0 562L34.3 589.7C68.7 617.3 137.3 672.7 205.8 694.2C274.3 715.7 342.7 703.3 411.2 682.7C479.7 662 548.3 633 617 627.7C685.7 622.3 754.3 640.7 823 670.7C891.7 700.7 960.3 742.3 1028.8 731.8C1097.3 721.3 1165.7 658.7 1234.2 639.7C1302.7 620.7 1371.3 645.3 1405.7 657.7L1440 670L1440 901L1405.7 901C1371.3 901 1302.7 901 1234.2 901C1165.7 901 1097.3 901 1028.8 901C960.3 901 891.7 901 823 901C754.3 901 685.7 901 617 901C548.3 901 479.7 901 411.2 901C342.7 901 274.3 901 205.8 901C137.3 901 68.7 901 34.3 901L0 901Z" fill="#1C8351" stroke-linecap="round" stroke-linejoin="miter"></path></svg>