<svg id="visual" viewBox="0 0 1440 600" width="1440" height="600" xmlns="http://www.w3.org/2000/svg" xmlns:xlink="http://www.w3.org/1999/xlink" version="1.1"><rect x="0" y="0" width="1440" height="600" fill="#1A191D"></rect><path d="M0 482L40 466.7C80 451.3 160 420.7 240 412.3C320 404 400 418 480 432C560 446 640 460 720 468.2C800 476.3 880 478.7 960 467.2C1040 455.7 1120 430.3 1200 430C1280 429.7 1360 454.3 1400 466.7L1440 479L1440 601L1400 601C1360 601 1280 601 1200 601C1120 601 1040 601 960 601C880 601 800 601 720 601C640 601 560 601 480 601C400 601 320 601 240 601C160 601 80 601 40 601L0 601Z" fill="#1C8351" stroke-linecap="round" stroke-linejoin="miter"></path></svg>